<svg width="44" height="45" viewBox="0 0 44 45" fill="none" xmlns="http://www.w3.org/2000/svg">
<rect y="0.5" width="44" height="44" rx="22" fill="#18181B"/>
<path d="M19 24.5C19 26.157 21.686 27.5 25 27.5C28.314 27.5 31 26.157 31 24.5M19 24.5C19 22.843 21.686 21.5 25 21.5C28.314 21.5 31 22.843 31 24.5M19 24.5V28.5C19 30.156 21.686 31.5 25 31.5C28.314 31.5 31 30.156 31 28.5V24.5M13 16.5C13 17.572 14.144 18.562 16 19.098C17.856 19.634 20.144 19.634 22 19.098C23.856 18.562 25 17.572 25 16.5C25 15.428 23.856 14.438 22 13.902C20.144 13.366 17.856 13.366 16 13.902C14.144 14.438 13 15.428 13 16.5ZM13 16.5V26.5C13 27.388 13.772 27.95 15 28.5M13 21.5C13 22.388 13.772 22.95 15 23.5" stroke="white" stroke-width="2" stroke-linecap="round" stroke-linejoin="round"/>
</svg>
