<svg width="44" height="45" viewBox="0 0 44 45" fill="none" xmlns="http://www.w3.org/2000/svg">
<rect y="0.5" width="44" height="44" rx="22" fill="#60C67D"/>
<path d="M19 29.5V23.5C19 23.2348 18.8946 22.9804 18.7071 22.7929C18.5196 22.6054 18.2652 22.5 18 22.5H14C13.7348 22.5 13.4804 22.6054 13.2929 22.7929C13.1054 22.9804 13 23.2348 13 23.5V29.5C13 29.7652 13.1054 30.0196 13.2929 30.2071C13.4804 30.3946 13.7348 30.5 14 30.5M19 29.5C19 29.7652 18.8946 30.0196 18.7071 30.2071C18.5196 30.3946 18.2652 30.5 18 30.5H14M19 29.5C19 29.7652 19.1054 30.0196 19.2929 30.2071C19.4804 30.3946 19.7348 30.5 20 30.5H24C24.2652 30.5 24.5196 30.3946 24.7071 30.2071C24.8946 30.0196 25 29.7652 25 29.5M19 29.5V19.5C19 19.2348 19.1054 18.9804 19.2929 18.7929C19.4804 18.6054 19.7348 18.5 20 18.5H24C24.2652 18.5 24.5196 18.6054 24.7071 18.7929C24.8946 18.9804 25 19.2348 25 19.5V29.5M14 30.5H28M25 29.5C25 29.7652 25.1054 30.0196 25.2929 30.2071C25.4804 30.3946 25.7348 30.5 26 30.5H30C30.2652 30.5 30.5196 30.3946 30.7071 30.2071C30.8946 30.0196 31 29.7652 31 29.5V15.5C31 15.2348 30.8946 14.9804 30.7071 14.7929C30.5196 14.6054 30.2652 14.5 30 14.5H26C25.7348 14.5 25.4804 14.6054 25.2929 14.7929C25.1054 14.9804 25 15.2348 25 15.5V29.5Z" stroke="white" stroke-width="2.66667" stroke-linecap="round" stroke-linejoin="round"/>
</svg>
