<svg width="45" height="45" viewBox="0 0 45 45" fill="none" xmlns="http://www.w3.org/2000/svg">
<rect x="0.5" y="0.5" width="44" height="44" rx="22" fill="#5DA2F9"/>
<path d="M19.5 24.5C19.5 26.157 22.186 27.5 25.5 27.5C28.814 27.5 31.5 26.157 31.5 24.5M19.5 24.5C19.5 22.843 22.186 21.5 25.5 21.5C28.814 21.5 31.5 22.843 31.5 24.5M19.5 24.5V28.5C19.5 30.156 22.186 31.5 25.5 31.5C28.814 31.5 31.5 30.156 31.5 28.5V24.5M13.5 16.5C13.5 17.572 14.644 18.562 16.5 19.098C18.356 19.634 20.644 19.634 22.5 19.098C24.356 18.562 25.5 17.572 25.5 16.5C25.5 15.428 24.356 14.438 22.5 13.902C20.644 13.366 18.356 13.366 16.5 13.902C14.644 14.438 13.5 15.428 13.5 16.5ZM13.5 16.5V26.5C13.5 27.388 14.272 27.95 15.5 28.5M13.5 21.5C13.5 22.388 14.272 22.95 15.5 23.5" stroke="white" stroke-width="2" stroke-linecap="round" stroke-linejoin="round"/>
</svg>
