<svg width="45" height="45" viewBox="0 0 45 45" fill="none" xmlns="http://www.w3.org/2000/svg">
<rect x="0.5" y="0.5" width="44" height="44" rx="22" fill="#18181B"/>
<path d="M20.4997 13.7C18.9354 14.0626 17.4966 14.8372 16.3326 15.9433C15.1686 17.0495 14.3217 18.4469 13.8797 19.9907C13.4378 21.5344 13.417 23.1683 13.8194 24.7229C14.2218 26.2774 15.0328 27.696 16.1683 28.8314C17.3037 29.9669 18.7223 30.7779 20.2768 31.1803C21.8314 31.5827 23.4653 31.5619 25.009 31.12C26.5528 30.678 27.9502 29.8311 29.0564 28.6671C30.1625 27.5031 30.9371 26.0643 31.2997 24.5C31.2997 24.2348 31.1944 23.9804 31.0068 23.7929C30.8193 23.6053 30.5649 23.5 30.2997 23.5H23.4997C22.9693 23.5 22.4606 23.2893 22.0855 22.9142C21.7104 22.5391 21.4997 22.0304 21.4997 21.5V14.5C21.4873 14.3815 21.4515 14.2667 21.3943 14.1622C21.3372 14.0576 21.2599 13.9655 21.1669 13.8911C21.0738 13.8166 20.967 13.7614 20.8524 13.7286C20.7379 13.6958 20.618 13.6861 20.4997 13.7Z" stroke="white" stroke-width="2" stroke-linecap="round" stroke-linejoin="round"/>
<path d="M25.4997 14C26.7694 14.4471 27.9227 15.1733 28.8746 16.1252C29.8264 17.077 30.5526 18.2303 30.9997 19.5H26.4997C26.2345 19.5 25.9802 19.3946 25.7926 19.2071C25.6051 19.0196 25.4997 18.7652 25.4997 18.5V14Z" stroke="white" stroke-width="2" stroke-linecap="round" stroke-linejoin="round"/>
</svg>
